# xmcd
#
# Track frame offsets:
#	150
#	15632
#	37265
#	54377
#	69702
#	80715
#	93780
#	108262
#	123090
#	146325
#	160822
#	179107
#	196370
#	219712
#	235822
#	247210
#
# Disc length: 3484 seconds
#
# Revision: 0
# Processed by: cddbd v1.5.2PL0 Copyright (c) Steve Scherf et al.
# Submitted via: EZCDAudioConverter 1.0.8.1
#
DISCID=e60d9a10
DTITLE=Danney Ball - I'm Coming Back To Church
DYEAR=1995
DGENRE=Country
TTITLE0=Yes We Can Get There From Here
TTITLE1=Alter Call
TTITLE2=Prayer Requests
TTITLE3=Gospel Bombs
TTITLE4=The Reason For Jesus
TTITLE5=Western Swing For The King
TTITLE6=Playing With Fire
TTITLE7=Doing The Best I can
TTITLE8=Smart and Final
TTITLE9=The California Earthquake Song
TTITLE10=Of You And Me
TTITLE11=Rainy Day
TTITLE12=All It Takes
TTITLE13=We Can't Retire
TTITLE14=Let's Give The Devil A Bad Hair Day
TTITLE15=I'm Coming Back To Church
EXTD=
EXTT0=
EXTT1=
EXTT2=
EXTT3=
EXTT4=
EXTT5=
EXTT6=
EXTT7=
EXTT8=
EXTT9=
EXTT10=
EXTT11=
EXTT12=
EXTT13=
EXTT14=
EXTT15=
PLAYORDER=
